<?xml version="1.0" encoding="UTF-8"?>
<svg xmlns="http://www.w3.org/2000/svg" width="1600" height="980" viewBox="0 0 1600 980">
  <defs>
    <marker id="arrow" viewBox="0 0 10 10" refX="9" refY="5" markerWidth="8" markerHeight="8" orient="auto-start-reverse">
      <path d="M 0 0 L 10 5 L 0 10 z" fill="#111"/>
    </marker>
    <style>
      .title { font: 700 28px 'Microsoft YaHei','SimSun',sans-serif; fill:#111; }
      .subtitle { font: 400 16px 'Microsoft YaHei','SimSun',sans-serif; fill:#444; }
      .text { font: 400 16px 'Microsoft YaHei','SimSun',sans-serif; fill:#111; }
      .small { font: 400 13px 'Microsoft YaHei','SimSun',sans-serif; fill:#222; }
      .tiny { font: 400 11px 'Microsoft YaHei','SimSun',sans-serif; fill:#333; }
      .box { fill:#fff; stroke:#111; stroke-width:2; rx:10; ry:10; }
      .group { fill:#fafafa; stroke:#111; stroke-width:2.2; rx:16; ry:16; }
      .panel { fill:#f6f6f6; stroke:#111; stroke-width:2; rx:14; ry:14; }
      .dashed { fill:#fcfcfc; stroke:#111; stroke-width:2; stroke-dasharray:8 6; rx:16; ry:16; }
      .line { stroke:#111; stroke-width:2; fill:none; marker-end:url(#arrow); }
      .plain { stroke:#111; stroke-width:2; fill:none; }
      .soft { fill:#f1f1f1; stroke:#111; stroke-width:1.6; rx:8; ry:8; }
      .chip { fill:#fff; stroke:#111; stroke-width:1.5; rx:12; ry:12; }
    </style>
  </defs>
  
  
  <text x="56" y="54" class="title">图 13  提示词节点素材引用标签界面示例</text>
  
  
  
  <rect x="40" y="90" width="1520" height="860" class="group"/>
  <rect x="40" y="90" width="1520" height="52" class="panel"/>
  <text x="70" y="122" class="text">NBC · 节点式素材创作器</text>
  <circle cx="1510" cy="116" r="7" fill="#111"/>
  <circle cx="1486" cy="116" r="7" fill="#fff" stroke="#111" stroke-width="2"/>
  <circle cx="1462" cy="116" r="7" fill="#fff" stroke="#111" stroke-width="2"/>
  
  <rect x="220" y="210" width="1180" height="660" class="panel"/>
  <rect x="260" y="360" width="170" height="88" class="box"/><text x="345" y="388" text-anchor="middle" class="text">素材输入</text><text x="345" y="412" text-anchor="middle" class="text">图片参考1</text>
  <rect x="520" y="280" width="620" height="360" class="panel"/><text x="830" y="308" text-anchor="middle" class="text">提示词</text>
  <rect x="550" y="324" width="130" height="28" class="chip"/><text x="615" y="343" text-anchor="middle" class="small">刷新状态</text>
  <rect x="696" y="324" width="112" height="28" class="chip"/><text x="752" y="343" text-anchor="middle" class="small">AI 优化</text>
  <text x="560" y="390" class="small">素材引用标签栏</text>
  <rect x="560" y="408" width="76" height="28" class="chip"/><text x="598" y="427" text-anchor="middle" class="small">[+图1]</text>
  <rect x="648" y="408" width="76" height="28" class="chip"/><text x="686" y="427" text-anchor="middle" class="small">[+图2]</text>
  <rect x="750" y="408" width="76" height="28" class="chip"/><text x="788" y="427" text-anchor="middle" class="small">[+视1]</text>
  <rect x="560" y="470" width="540" height="120" class="soft"/>
  <text x="582" y="512" text-anchor="start" class="text">请根据 {{图片参考1}} 的角色造型</text><text x="582" y="534" text-anchor="start" class="text">生成海报，强化光影与人物主体表现。</text>
  <path d="M 430 404 C 470 404, 470 404, 520 404" class="line"/>
  <text x="275" y="340" class="small">素材节点标题栏同步显示标签</text>
  <text x="560" y="620" class="small">提示词节点局部放大示意</text>
  
</svg>