<?xml version="1.0" encoding="UTF-8"?>
<svg xmlns="http://www.w3.org/2000/svg" width="1600" height="980" viewBox="0 0 1600 980">
  <defs>
    <marker id="arrow" viewBox="0 0 10 10" refX="9" refY="5" markerWidth="8" markerHeight="8" orient="auto-start-reverse">
      <path d="M 0 0 L 10 5 L 0 10 z" fill="#111"/>
    </marker>
    <style>
      .title { font: 700 28px 'Microsoft YaHei','SimSun',sans-serif; fill:#111; }
      .subtitle { font: 400 16px 'Microsoft YaHei','SimSun',sans-serif; fill:#444; }
      .text { font: 400 16px 'Microsoft YaHei','SimSun',sans-serif; fill:#111; }
      .small { font: 400 13px 'Microsoft YaHei','SimSun',sans-serif; fill:#222; }
      .tiny { font: 400 11px 'Microsoft YaHei','SimSun',sans-serif; fill:#333; }
      .box { fill:#fff; stroke:#111; stroke-width:2; rx:10; ry:10; }
      .group { fill:#fafafa; stroke:#111; stroke-width:2.2; rx:16; ry:16; }
      .panel { fill:#f6f6f6; stroke:#111; stroke-width:2; rx:14; ry:14; }
      .dashed { fill:#fcfcfc; stroke:#111; stroke-width:2; stroke-dasharray:8 6; rx:16; ry:16; }
      .line { stroke:#111; stroke-width:2; fill:none; marker-end:url(#arrow); }
      .plain { stroke:#111; stroke-width:2; fill:none; }
      .soft { fill:#f1f1f1; stroke:#111; stroke-width:1.6; rx:8; ry:8; }
      .chip { fill:#fff; stroke:#111; stroke-width:1.5; rx:12; ry:12; }
    </style>
  </defs>
  
  
  <text x="56" y="54" class="title">图 14  三路保存协调器数据流图</text>
  
  
  <rect x="640" y="130" width="320" height="76" class="box"/><text x="800" y="158" text-anchor="middle" class="text">AI 生成结果</text><text x="800" y="182" text-anchor="middle" class="text">resultUrls[]</text>
  <rect x="560" y="270" width="480" height="88" class="box"/><text x="800" y="298" text-anchor="middle" class="text">saveManager.ts 三路保存协调器</text><text x="800" y="322" text-anchor="middle" class="text">统一编排本地保存、OSS 上传与飞书同步</text>
  <rect x="90" y="470" width="360" height="210" class="box"/><text x="270" y="498" text-anchor="middle" class="text">本地保存</text><text x="270" y="522" text-anchor="middle" class="small">IPC：save:local</text><text x="270" y="540" text-anchor="middle" class="small">路径：文档\NBC素材\</text><text x="270" y="558" text-anchor="middle" class="small">操作：fs.writeFile</text>
  <rect x="620" y="470" width="360" height="210" class="box"/><text x="800" y="498" text-anchor="middle" class="text">OSS 上传</text><text x="800" y="522" text-anchor="middle" class="small">IPC：save:oss</text><text x="800" y="540" text-anchor="middle" class="small">Bucket：yukkio / staging</text><text x="800" y="558" text-anchor="middle" class="small">操作：OSS SDK.put()</text>
  <rect x="1150" y="470" width="360" height="210" class="box"/><text x="1330" y="498" text-anchor="middle" class="text">飞书同步</text><text x="1330" y="522" text-anchor="middle" class="small">IPC：save:feishu</text><text x="1330" y="540" text-anchor="middle" class="small">写入 JSONL 队列文件</text><text x="1330" y="558" text-anchor="middle" class="small">操作：fs.appendFile + JSON 序列化</text>
  <rect x="370" y="810" width="860" height="120" class="panel"/><text x="800" y="838" text-anchor="middle" class="text">持久化状态更新</text><text x="800" y="862" text-anchor="middle" class="small">updateNodeData({ _resultUrl, _localPath, _ossUrl })</text><text x="800" y="880" text-anchor="middle" class="small">将节点执行状态更新为完成并保留结果访问路径</text>
  <path d="M 800 206 L 800 270" class="line"/>
  <path d="M 800 358 L 270 470" class="line"/>
  <path d="M 800 358 L 800 470" class="line"/>
  <path d="M 800 358 L 1330 470" class="line"/>
  <path d="M 270 680 L 580 810" class="line"/>
  <path d="M 800 680 L 800 810" class="line"/>
  <path d="M 1330 680 L 1020 810" class="line"/>
  
</svg>