<?xml version="1.0" encoding="UTF-8"?>
<svg xmlns="http://www.w3.org/2000/svg" width="1600" height="1120" viewBox="0 0 1600 1120">
  <defs>
    <marker id="arrow" viewBox="0 0 10 10" refX="9" refY="5" markerWidth="8" markerHeight="8" orient="auto-start-reverse">
      <path d="M 0 0 L 10 5 L 0 10 z" fill="#111"/>
    </marker>
    <style>
      .title { font: 700 28px 'Microsoft YaHei','SimSun',sans-serif; fill:#111; }
      .subtitle { font: 400 16px 'Microsoft YaHei','SimSun',sans-serif; fill:#444; }
      .text { font: 400 16px 'Microsoft YaHei','SimSun',sans-serif; fill:#111; }
      .small { font: 400 13px 'Microsoft YaHei','SimSun',sans-serif; fill:#222; }
      .tiny { font: 400 11px 'Microsoft YaHei','SimSun',sans-serif; fill:#333; }
      .box { fill:#fff; stroke:#111; stroke-width:2; rx:10; ry:10; }
      .group { fill:#fafafa; stroke:#111; stroke-width:2.2; rx:16; ry:16; }
      .panel { fill:#f6f6f6; stroke:#111; stroke-width:2; rx:14; ry:14; }
      .dashed { fill:#fcfcfc; stroke:#111; stroke-width:2; stroke-dasharray:8 6; rx:16; ry:16; }
      .line { stroke:#111; stroke-width:2; fill:none; marker-end:url(#arrow); }
      .plain { stroke:#111; stroke-width:2; fill:none; }
      .soft { fill:#f1f1f1; stroke:#111; stroke-width:1.6; rx:8; ry:8; }
      .chip { fill:#fff; stroke:#111; stroke-width:1.5; rx:12; ry:12; }
    </style>
  </defs>
  
  
  <text x="56" y="54" class="title">图 4  执行上下文构建流程图</text>
  
  
  <rect x="420" y="110" width="760" height="76" class="box"/><text x="800" y="138" text-anchor="middle" class="text">输入</text><text x="800" y="162" text-anchor="middle" class="text">当前生成节点 ID、全图 nodes[]、edges[]</text>
  <rect x="620" y="236" width="360" height="70" class="box"/><text x="800" y="264" text-anchor="middle" class="text">findUpstream(nodeId)</text><text x="800" y="288" text-anchor="middle" class="text">递归反向遍历获取全部上游节点</text>
  <rect x="620" y="356" width="360" height="70" class="box"/><text x="800" y="384" text-anchor="middle" class="text">遍历 upstream 节点</text><text x="800" y="408" text-anchor="middle" class="text">按节点类型分类提取信息</text>
  <rect x="80" y="490" width="190" height="110" class="box"/><text x="175" y="518" text-anchor="middle" class="text">素材输入</text><text x="175" y="542" text-anchor="middle" class="text">区分图像 / 视频</text><text x="175" y="564" text-anchor="middle" class="text">写入 refs</text>
  <rect x="310" y="490" width="190" height="110" class="box"/><text x="405" y="518" text-anchor="middle" class="text">角色卡</text><text x="405" y="542" text-anchor="middle" class="text">角色名</text><text x="405" y="564" text-anchor="middle" class="text">外观 / 种子 / 约束</text>
  <rect x="540" y="490" width="190" height="110" class="box"/><text x="635" y="518" text-anchor="middle" class="text">场景卡</text><text x="635" y="542" text-anchor="middle" class="text">场景名</text><text x="635" y="564" text-anchor="middle" class="text">场景描述</text>
  <rect x="770" y="490" width="190" height="110" class="box"/><text x="865" y="518" text-anchor="middle" class="text">物品卡</text><text x="865" y="542" text-anchor="middle" class="text">物品名</text><text x="865" y="564" text-anchor="middle" class="text">物品描述</text>
  <rect x="1000" y="490" width="190" height="110" class="box"/><text x="1095" y="518" text-anchor="middle" class="text">剧本 / 分镜</text><text x="1095" y="542" text-anchor="middle" class="text">文本全文</text><text x="1095" y="564" text-anchor="middle" class="text">动作 / 对白</text>
  <rect x="1230" y="490" width="290" height="110" class="box"/><text x="1375" y="518" text-anchor="middle" class="text">提示词节点</text><text x="1375" y="542" text-anchor="middle" class="text">原始提示词</text><text x="1375" y="564" text-anchor="middle" class="text">模板变量待替换</text>
  <rect x="300" y="674" width="1000" height="88" class="box"/><text x="800" y="702" text-anchor="middle" class="text">合并中间结构</text><text x="800" y="726" text-anchor="middle" class="text">imageRefs / videoRefs / characters / scenes / items / scripts</text>
  <rect x="540" y="812" width="520" height="88" class="box"/><text x="800" y="840" text-anchor="middle" class="text">collectPrompt()</text><text x="800" y="864" text-anchor="middle" class="text">合并角色、场景、脚本与提示词，形成完整提示文本</text>
  <rect x="430" y="950" width="740" height="120" class="box"/><text x="800" y="978" text-anchor="middle" class="text">构建 ExecutionContext</text><text x="800" y="1002" text-anchor="middle" class="text">prompt</text><text x="800" y="1024" text-anchor="middle" class="text">imageRefs / videoRefs</text><text x="800" y="1046" text-anchor="middle" class="text">negativePrompt / consistencySeed / batchCount / genParams</text>
  <path d="M 800 186 L 800 236" class="line"/>
  <path d="M 800 306 L 800 356" class="line"/>
  <path d="M 800 426 L 175 490" class="line"/>
  <path d="M 800 426 L 405 490" class="line"/>
  <path d="M 800 426 L 635 490" class="line"/>
  <path d="M 800 426 L 865 490" class="line"/>
  <path d="M 800 426 L 1095 490" class="line"/>
  <path d="M 800 426 L 1375 490" class="line"/>
  <path d="M 175 600 L 420 674" class="line"/>
  <path d="M 405 600 L 520 674" class="line"/>
  <path d="M 635 600 L 650 674" class="line"/>
  <path d="M 865 600 L 780 674" class="line"/>
  <path d="M 1095 600 L 930 674" class="line"/>
  <path d="M 1375 600 L 1180 674" class="line"/>
  <path d="M 800 762 L 800 812" class="line"/>
  <path d="M 800 900 L 800 950" class="line"/>
  
</svg>